# xmcd
#
# Track frame offsets:
#	150
#	17823
#	34891
#	49695
#	67872
#	84146
#	101019
#	117546
#	134519
#	153204
#	171128
#
# Disc length: 2529 seconds
#
# Revision: 1
# Processed by: cddbd v1.5.2PL0 Copyright (c) Steve Scherf et al.
# Submitted via: audiograbber 1.83.01
#
DISCID=8709df0b
DTITLE=MayBee - Ainoa Unelma
DYEAR=2005
DGENRE=Pop
TTITLE0=Teen Mitä Vaan
TTITLE1=Noidun Sinut
TTITLE2=Däng Däng Däng
TTITLE3=Villi Poika
TTITLE4=Mä Haluun Kokea Kaiken
TTITLE5=Älä Jätä Mua Tänne
TTITLE6=Lennä Pois
TTITLE7=Ota Mut Mukaan
TTITLE8=Viimeisen Kerran
TTITLE9=En Suostu Alistumaan
TTITLE10=Hyvää Päivää Aamen
EXTD=TR.
EXTT0=
EXTT1=
EXTT2=
EXTT3=
EXTT4=
EXTT5=
EXTT6=
EXTT7=
EXTT8=
EXTT9=
EXTT10=
PLAYORDER=
